<svg width="123" height="27" viewBox="0 0 123 27" fill="none" xmlns="http://www.w3.org/2000/svg">
<g filter="url(#filter0_d_297009_643)">
<path d="M10.436 5.738H13.154L14.486 9.824L15.818 5.738H18.554L16.376 11.678L17.672 15.08L20.876 5.72H24.098L19.112 18.5H16.556L14.486 13.496L12.434 18.5H9.86L4.892 5.72H8.096L11.318 15.08L12.578 11.678L10.436 5.738ZM34.7304 15.908V18.5H25.7484V5.72H34.5684V8.312H28.7004V10.796H33.7404V13.19H28.7004V15.908H34.7304ZM47.6298 15.224C47.6298 15.956 47.4318 16.568 47.0358 17.06C46.6518 17.54 46.1298 17.9 45.4698 18.14C44.8098 18.38 44.0838 18.5 43.2918 18.5H37.0638V5.72H44.1738C44.7738 5.72 45.2898 5.882 45.7218 6.206C46.1658 6.518 46.5018 6.926 46.7298 7.43C46.9698 7.934 47.0898 8.456 47.0898 8.996C47.0898 9.596 46.9338 10.172 46.6218 10.724C46.3098 11.264 45.8538 11.672 45.2538 11.948C45.9858 12.164 46.5618 12.548 46.9818 13.1C47.4138 13.652 47.6298 14.36 47.6298 15.224ZM44.6238 14.63C44.6238 14.354 44.5698 14.114 44.4618 13.91C44.3538 13.694 44.2098 13.526 44.0298 13.406C43.8618 13.274 43.6578 13.208 43.4178 13.208H40.0158V15.998H43.2918C43.5438 15.998 43.7658 15.938 43.9578 15.818C44.1618 15.698 44.3238 15.536 44.4438 15.332C44.5638 15.128 44.6238 14.894 44.6238 14.63ZM40.0158 8.24V10.886H42.9138C43.1298 10.886 43.3278 10.838 43.5078 10.742C43.6998 10.646 43.8558 10.502 43.9758 10.31C44.0958 10.106 44.1558 9.854 44.1558 9.554C44.1558 9.266 44.1018 9.026 43.9938 8.834C43.8978 8.642 43.7658 8.498 43.5978 8.402C43.4298 8.294 43.2378 8.24 43.0218 8.24H40.0158Z" fill="#4D5AE5"/>
<path d="M57.892 9.464C57.856 9.404 57.73 9.314 57.514 9.194C57.298 9.062 57.028 8.924 56.704 8.78C56.38 8.636 56.026 8.51 55.642 8.402C55.258 8.294 54.874 8.24 54.49 8.24C53.986 8.24 53.596 8.33 53.32 8.51C53.044 8.678 52.906 8.942 52.906 9.302C52.906 9.59 53.008 9.818 53.212 9.986C53.428 10.154 53.734 10.304 54.13 10.436C54.526 10.556 55.012 10.7 55.588 10.868C56.404 11.084 57.112 11.348 57.712 11.66C58.312 11.96 58.768 12.35 59.08 12.83C59.404 13.31 59.566 13.946 59.566 14.738C59.566 15.458 59.434 16.07 59.17 16.574C58.906 17.066 58.546 17.468 58.09 17.78C57.646 18.08 57.136 18.302 56.56 18.446C55.984 18.578 55.39 18.644 54.778 18.644C54.154 18.644 53.512 18.584 52.852 18.464C52.204 18.332 51.58 18.152 50.98 17.924C50.38 17.684 49.828 17.396 49.324 17.06L50.62 14.486C50.668 14.546 50.824 14.66 51.088 14.828C51.352 14.984 51.676 15.152 52.06 15.332C52.456 15.5 52.894 15.65 53.374 15.782C53.854 15.914 54.34 15.98 54.832 15.98C55.36 15.98 55.75 15.896 56.002 15.728C56.266 15.56 56.398 15.326 56.398 15.026C56.398 14.702 56.26 14.45 55.984 14.27C55.72 14.09 55.354 13.928 54.886 13.784C54.43 13.64 53.902 13.478 53.302 13.298C52.522 13.058 51.874 12.788 51.358 12.488C50.854 12.188 50.476 11.822 50.224 11.39C49.984 10.958 49.864 10.418 49.864 9.77C49.864 8.87 50.074 8.114 50.494 7.502C50.926 6.878 51.502 6.41 52.222 6.098C52.942 5.774 53.728 5.612 54.58 5.612C55.18 5.612 55.756 5.684 56.308 5.828C56.872 5.972 57.394 6.152 57.874 6.368C58.366 6.584 58.804 6.8 59.188 7.016L57.892 9.464ZM71.5762 8.312H67.6882V18.5H64.7362V8.312H60.8302V5.72H71.5762V8.312ZM79.0479 18.608C78.0279 18.608 77.1579 18.44 76.4379 18.104C75.7179 17.756 75.1299 17.288 74.6739 16.7C74.2299 16.1 73.8999 15.422 73.6839 14.666C73.4799 13.898 73.3779 13.094 73.3779 12.254V5.72H76.3299V12.254C76.3299 12.734 76.3779 13.202 76.4739 13.658C76.5699 14.102 76.7259 14.498 76.9419 14.846C77.1579 15.194 77.4339 15.47 77.7699 15.674C78.1179 15.878 78.5439 15.98 79.0479 15.98C79.5639 15.98 79.9959 15.878 80.3439 15.674C80.6919 15.458 80.9679 15.176 81.1719 14.828C81.3759 14.468 81.5259 14.066 81.6219 13.622C81.7179 13.178 81.7659 12.722 81.7659 12.254V5.72H84.7179V12.254C84.7179 13.142 84.6039 13.97 84.3759 14.738C84.1599 15.506 83.8239 16.184 83.3679 16.772C82.9119 17.348 82.3239 17.798 81.6039 18.122C80.8959 18.446 80.0439 18.608 79.0479 18.608ZM87.5452 18.5V5.72H92.3152C93.7192 5.72 94.8892 6.008 95.8252 6.584C96.7732 7.148 97.4872 7.916 97.9672 8.888C98.4472 9.848 98.6872 10.916 98.6872 12.092C98.6872 13.388 98.4232 14.516 97.8952 15.476C97.3672 16.436 96.6232 17.18 95.6632 17.708C94.7152 18.236 93.5992 18.5 92.3152 18.5H87.5452ZM95.6812 12.092C95.6812 11.348 95.5492 10.694 95.2852 10.13C95.0212 9.554 94.6372 9.11 94.1332 8.798C93.6292 8.474 93.0232 8.312 92.3152 8.312H90.4972V15.908H92.3152C93.0352 15.908 93.6412 15.746 94.1332 15.422C94.6372 15.086 95.0212 14.63 95.2852 14.054C95.5492 13.466 95.6812 12.812 95.6812 12.092ZM100.97 18.5V5.72H103.922V18.5H100.97ZM112.504 18.608C111.544 18.608 110.674 18.428 109.894 18.068C109.126 17.696 108.46 17.204 107.896 16.592C107.344 15.968 106.918 15.272 106.618 14.504C106.318 13.724 106.168 12.92 106.168 12.092C106.168 11.24 106.324 10.43 106.636 9.662C106.96 8.894 107.404 8.21 107.968 7.61C108.544 6.998 109.222 6.518 110.002 6.17C110.782 5.822 111.634 5.648 112.558 5.648C113.506 5.648 114.364 5.834 115.132 6.206C115.912 6.566 116.578 7.058 117.13 7.682C117.694 8.306 118.126 9.008 118.426 9.788C118.726 10.556 118.876 11.342 118.876 12.146C118.876 12.998 118.72 13.808 118.408 14.576C118.096 15.344 117.652 16.034 117.076 16.646C116.5 17.246 115.822 17.726 115.042 18.086C114.274 18.434 113.428 18.608 112.504 18.608ZM109.174 12.128C109.174 12.62 109.246 13.1 109.39 13.568C109.534 14.024 109.744 14.432 110.02 14.792C110.308 15.152 110.662 15.44 111.082 15.656C111.502 15.872 111.982 15.98 112.522 15.98C113.086 15.98 113.578 15.872 113.998 15.656C114.418 15.428 114.766 15.128 115.042 14.756C115.318 14.384 115.522 13.97 115.654 13.514C115.798 13.046 115.87 12.572 115.87 12.092C115.87 11.6 115.798 11.126 115.654 10.67C115.51 10.214 115.294 9.806 115.006 9.446C114.718 9.074 114.364 8.786 113.944 8.582C113.524 8.378 113.05 8.276 112.522 8.276C111.958 8.276 111.466 8.384 111.046 8.6C110.638 8.816 110.29 9.11 110.002 9.482C109.726 9.842 109.516 10.256 109.372 10.724C109.24 11.18 109.174 11.648 109.174 12.128Z" fill="#2E2F42"/>
</g>
<defs>
<filter id="filter0_d_297009_643" x="0.89209" y="0" width="123.108" height="32" filterUnits="userSpaceOnUse" color-interpolation-filters="sRGB">
<feFlood flood-opacity="0" result="BackgroundImageFix"/>
<feColorMatrix in="SourceAlpha" type="matrix" values="0 0 0 0 0 0 0 0 0 0 0 0 0 0 0 0 0 0 127 0" result="hardAlpha"/>
<feOffset dy="4"/>
<feGaussianBlur stdDeviation="2"/>
<feComposite in2="hardAlpha" operator="out"/>
<feColorMatrix type="matrix" values="0 0 0 0 0 0 0 0 0 0 0 0 0 0 0 0 0 0 0.25 0"/>
<feBlend mode="normal" in2="BackgroundImageFix" result="effect1_dropShadow_297009_643"/>
<feBlend mode="normal" in="SourceGraphic" in2="effect1_dropShadow_297009_643" result="shape"/>
</filter>
</defs>
</svg>
